<svg width="1079" height="1035"
    xmlns="http://www.w3.org/2000/svg"
    xmlns:xlink="http://www.w3.org/1999/xlink" xml:space="preserve" overflow="hidden">
    <g transform="translate(-1655 -723)">
        <path d="M1732.77 1281.14C1740.82 1314.75 1752.7 1346.21 1768.43 1375.5 1784.15 1404.78 1802.87 1431.4 1824.6 1455.34 1846.32 1479.28 1870.64 1500.3 1897.54 1518.38 1924.44 1536.46 1953.09 1551.1 1983.49 1562.3 2013.9 1573.5 2045.62 1580.93 2078.65 1584.57 2111.69 1588.21 2145.17 1587.39 2179.09 1582.11 2177.81 1593.08 2177.28 1604.22 2177.5 1615.54 2177.72 1626.86 2177.74 1638.05 2177.54 1649.12 2138.26 1654.26 2099.73 1654.42 2061.97 1649.6 2024.21 1644.78 1988 1635.68 1953.34 1622.3 1918.68 1608.92 1886.01 1591.6 1855.33 1570.33 1824.65 1549.07 1797 1524.5 1772.38 1496.64 1747.75 1468.77 1726.54 1438.04 1708.72 1404.45 1690.9 1370.87 1677.41 1334.92 1668.23 1296.6 1658.25 1254.91 1654.03 1213.54 1655.57 1172.48 1657.11 1131.41 1663.71 1091.8 1675.36 1053.65 1687.02 1015.49 1703.26 979.439 1724.1 945.483 1744.94 911.527 1769.72 880.713 1798.46 853.039 1827.2 825.366 1859.52 801.543 1895.43 781.57 1931.35 761.598 1970.14 746.621 2011.83 736.64 2067.96 723.198 2123.74 720.148 2179.17 727.49 2234.59 734.832 2286.37 751.045 2334.49 776.13 2382.62 801.214 2425.55 834.295 2463.28 875.373 2501.02 916.45 2530.56 963.755 2551.91 1017.29 2541.31 1020.53 2530.94 1024.71 2520.79 1029.8 2510.63 1034.9 2501.25 1040.97 2492.63 1048.01 2474.98 1001.05 2449.95 959.599 2417.53 923.647 2385.11 887.694 2348.13 858.696 2306.6 836.654 2265.07 814.611 2220.32 800.27 2172.35 793.631 2124.38 786.992 2076.02 789.508 2027.28 801.179 1991.65 809.711 1958.47 822.543 1927.74 839.675 1897.01 856.808 1869.29 877.218 1844.58 900.907 1819.86 924.596 1798.55 951.023 1780.66 980.187 1762.76 1009.35 1748.85 1040.32 1738.93 1073.08 1729 1105.85 1723.36 1139.81 1722.01 1174.96 1720.65 1210.12 1724.24 1245.51 1732.77 1281.14ZM1895.48 1105.7C1893.31 1096.62 1892.98 1087.82 1894.49 1079.28 1895.99 1070.74 1898.99 1062.83 1903.46 1055.54 1907.93 1048.25 1913.63 1042 1920.56 1036.78 1927.49 1031.57 1935.49 1027.88 1944.56 1025.71 1953.64 1023.53 1962.45 1023.2 1970.98 1024.71 1979.52 1026.22 1987.43 1029.21 1994.72 1033.69 2002.01 1038.16 2008.27 1043.86 2013.48 1050.79 2018.69 1057.71 2022.39 1065.71 2024.56 1074.79 2026.73 1083.87 2027.06 1092.67 2025.55 1101.21 2024.04 1109.75 2021.05 1117.66 2016.58 1124.95 2012.1 1132.24 2006.4 1138.49 1999.48 1143.71 1992.55 1148.92 1984.55 1152.61 1975.47 1154.78 1966.4 1156.96 1957.59 1157.29 1949.06 1155.78 1940.52 1154.27 1932.6 1151.28 1925.31 1146.8 1918.02 1142.33 1911.77 1136.63 1906.56 1129.7 1901.35 1122.78 1897.65 1114.78 1895.48 1105.7ZM2153.64 1043.88C2151.46 1034.81 2151.13 1026 2152.64 1017.46 2154.15 1008.93 2157.14 1001.01 2161.62 993.723 2166.09 986.432 2171.79 980.18 2178.72 974.967 2185.65 969.755 2193.65 966.062 2202.72 963.888 2211.8 961.715 2220.6 961.384 2229.14 962.894 2237.68 964.403 2245.59 967.396 2252.88 971.87 2260.17 976.343 2266.42 982.043 2271.64 988.97 2276.85 995.897 2280.54 1003.9 2282.72 1012.97 2284.89 1022.05 2285.22 1030.85 2283.71 1039.39 2282.2 1047.93 2279.21 1055.84 2274.73 1063.13 2270.26 1070.42 2264.56 1076.68 2257.63 1081.89 2250.71 1087.1 2242.71 1090.79 2233.63 1092.97 2224.55 1095.14 2215.75 1095.47 2207.21 1093.96 2198.68 1092.45 2190.76 1089.46 2183.47 1084.99 2176.18 1080.51 2169.93 1074.81 2164.72 1067.89 2159.5 1060.96 2155.81 1052.96 2153.64 1043.88ZM2579.85 1078.3C2596.66 1074.28 2613.14 1073.71 2629.29 1076.59 2645.44 1079.48 2660.26 1084.99 2673.76 1093.13 2687.26 1101.27 2698.98 1111.97 2708.91 1125.24 2718.83 1138.5 2725.77 1153.36 2729.72 1169.83 2733.58 1185.97 2734.26 1202.15 2731.75 1218.39 2729.24 1234.63 2723.64 1249.84 2714.95 1264L2477.96 1650.22C2471.06 1661.47 2462.74 1671.64 2453.01 1680.72 2443.27 1689.8 2432.55 1697.34 2420.84 1703.35L2330.33 1750.61C2325.87 1752.75 2321.45 1754.34 2317.08 1755.38 2309.01 1757.32 2301.17 1757.59 2293.56 1756.22 2285.94 1754.84 2278.8 1752.11 2272.13 1748.02 2265.47 1743.93 2259.8 1738.8 2255.12 1732.63 2250.45 1726.47 2247.14 1719.35 2245.21 1711.28 2244.16 1706.91 2243.58 1702.26 2243.46 1697.31L2244.6 1595.21C2244.65 1582.05 2246.52 1569.07 2250.21 1556.28 2253.9 1543.49 2259.2 1531.47 2266.1 1520.22L2503.09 1134C2511.78 1119.84 2522.71 1107.98 2535.89 1098.43 2549.06 1088.87 2563.71 1082.17 2579.85 1078.3ZM2361.35 1198.86C2362.15 1202.23 2362.37 1205.37 2362.01 1208.3 2361.64 1211.23 2360.98 1214.41 2360.03 1217.84 2357.86 1225.11 2354.79 1232.33 2350.82 1239.5 2346.85 1246.67 2342.61 1253.46 2338.11 1259.87 2318.43 1290.53 2293.8 1316.42 2264.21 1337.55 2234.61 1358.67 2202 1373.5 2166.37 1382.03 2130.74 1390.56 2094.95 1392.12 2058.99 1386.69 2023.04 1381.26 1989.35 1369.33 1957.93 1350.91 1951.01 1347.24 1944.15 1343.1 1937.37 1338.51 1930.58 1333.91 1924.57 1328.86 1919.35 1323.36 1916.94 1320.74 1914.91 1318.21 1913.26 1315.76 1911.61 1313.31 1910.34 1310.24 1909.45 1306.54 1907.36 1297.8 1908.76 1289.56 1913.66 1281.81 1918.56 1274.06 1925.38 1269.14 1934.12 1267.05 1940.17 1265.6 1945.49 1265.57 1950.09 1266.95 1954.68 1268.34 1959.39 1270.95 1964.22 1274.77 1990.67 1296.16 2020.07 1310.62 2052.44 1318.15 2084.81 1325.68 2117.64 1325.46 2150.92 1317.49 2184.19 1309.52 2213.56 1294.85 2239 1273.48 2264.45 1252.1 2284.12 1225.89 2298.01 1194.84 2300.58 1189.25 2303.6 1184.79 2307.07 1181.47 2310.54 1178.15 2315.13 1175.81 2320.85 1174.44 2329.59 1172.35 2338 1173.71 2346.08 1178.53 2354.17 1183.35 2359.26 1190.12 2361.35 1198.86Z" fill="#8faadc" fill-rule="evenodd"/>
    </g>
</svg>